paper_minjerk_fatigue_10cycle_first
version=1
nRows=254
nColumns=3
inDegrees=yes
endheader
time	r_shoulder_elev	r_elbow_flex
0.0000	20.000000	20.000000
0.0100	20.000000	20.000293
0.0200	20.000000	20.002323
0.0300	20.000000	20.007762
0.0400	20.000000	20.018213
0.0500	20.000000	20.035210
0.0600	20.000000	20.060221
0.0700	20.000000	20.094648
0.0800	20.000000	20.139826
0.0900	20.000000	20.197027
0.1000	20.000000	20.267457
0.1100	20.000000	20.352262
0.1200	20.000000	20.452526
0.1300	20.000000	20.569271
0.1400	20.000000	20.703461
0.1500	20.000000	20.856000
0.1600	20.000000	21.027734
0.1700	20.000000	21.219453
0.1800	20.000000	21.431890
0.1900	20.000000	21.665724
0.2000	20.000000	21.921580
0.2100	20.000000	22.200029
0.2200	20.000000	22.501591
0.2300	20.000000	22.826734
0.2400	20.000000	23.175875
0.2500	20.000000	23.549383
0.2600	20.000000	23.947578
0.2700	20.000000	24.370734
0.2800	20.000000	24.819076
0.2900	20.000000	25.292786
0.3000	20.000000	25.792000
0.3100	20.000000	26.316810
0.3200	20.000000	26.867267
0.3300	20.000000	27.443378
0.3400	20.000000	28.045111
0.3500	20.000000	28.672395
0.3600	20.000000	29.325117
0.3700	20.000000	30.003130
0.3800	20.000000	30.706245
0.3900	20.000000	31.434243
0.4000	20.000000	32.186864
0.4100	20.000000	32.963819
0.4200	20.000000	33.764782
0.4300	20.000000	34.589397
0.4400	20.000000	35.437276
0.4500	20.000000	36.308000
0.4600	20.000000	37.201122
0.4700	20.000000	38.116165
0.4800	20.000000	39.052626
0.4900	20.000000	40.009974
0.5000	20.000000	40.987654
0.5100	20.000000	41.985085
0.5200	20.000000	43.001663
0.5300	20.000000	44.036761
0.5400	20.000000	45.089731
0.5500	20.000000	46.159901
0.5600	20.000000	47.246584
0.5700	20.000000	48.349070
0.5800	20.000000	49.466633
0.5900	20.000000	50.598530
0.6000	20.000000	51.744000
0.6100	20.000000	52.902269
0.6200	20.000000	54.072548
0.6300	20.000000	55.254034
0.6400	20.000000	56.445913
0.6500	20.000000	57.647358
0.6600	20.000000	58.857533
0.6700	20.000000	60.075593
0.6800	20.000000	61.300682
0.6900	20.000000	62.531939
0.7000	20.000000	63.768494
0.7100	20.000000	65.009473
0.7200	20.000000	66.253998
0.7300	20.000000	67.501185
0.7400	20.000000	68.750148
0.7500	20.000000	70.000000
0.7600	20.000000	71.249852
0.7700	20.000000	72.498815
0.7800	20.000000	73.746002
0.7900	20.000000	74.990527
0.8000	20.000000	76.231506
0.8100	20.000000	77.468061
0.8200	20.000000	78.699318
0.8300	20.000000	79.924407
0.8400	20.000000	81.142467
0.8500	20.000000	82.352642
0.8600	20.000000	83.554087
0.8700	20.000000	84.745966
0.8800	20.000000	85.927452
0.8900	20.000000	87.097731
0.9000	20.000000	88.256000
0.9100	20.000000	89.401470
0.9200	20.000000	90.533367
0.9300	20.000000	91.650930
0.9400	20.000000	92.753416
0.9500	20.000000	93.840099
0.9600	20.000000	94.910269
0.9700	20.000000	95.963239
0.9800	20.000000	96.998337
0.9900	20.000000	98.014915
1.0000	20.000000	99.012346
1.0100	20.000000	99.990026
1.0200	20.000000	100.947374
1.0300	20.000000	101.883835
1.0400	20.000000	102.798878
1.0500	20.000000	103.692000
1.0600	20.000000	104.562724
1.0700	20.000000	105.410603
1.0800	20.000000	106.235218
1.0900	20.000000	107.036181
1.1000	20.000000	107.813136
1.1100	20.000000	108.565757
1.1200	20.000000	109.293755
1.1300	20.000000	109.996870
1.1400	20.000000	110.674883
1.1500	20.000000	111.327605
1.1600	20.000000	111.954889
1.1700	20.000000	112.556622
1.1800	20.000000	113.132733
1.1900	20.000000	113.683190
1.2000	20.000000	114.208000
1.2100	20.000000	114.707214
1.2200	20.000000	115.180924
1.2300	20.000000	115.629266
1.2400	20.000000	116.052422
1.2500	20.000000	116.450617
1.2600	20.000000	116.824125
1.2700	20.000000	117.173266
1.2800	20.000000	117.498409
1.2900	20.000000	117.799971
1.3000	20.000000	118.078420
1.3100	20.000000	118.334276
1.3200	20.000000	118.568110
1.3300	20.000000	118.780547
1.3400	20.000000	118.972266
1.3500	20.000000	119.144000
1.3600	20.000000	119.296539
1.3700	20.000000	119.430729
1.3800	20.000000	119.547474
1.3900	20.000000	119.647738
1.4000	20.000000	119.732543
1.4100	20.000000	119.802973
1.4200	20.000000	119.860174
1.4300	20.000000	119.905352
1.4400	20.000000	119.939779
1.4500	20.000000	119.964790
1.4600	20.000000	119.981787
1.4700	20.000000	119.992238
1.4800	20.000000	119.997677
1.4900	20.000000	119.999707
1.5000	20.000000	120.000000
1.5100	20.000000	120.000000
1.5200	20.000000	120.000000
1.5300	20.000000	120.000000
1.5400	20.000000	120.000000
1.5500	20.000000	120.000000
1.5600	20.000000	120.000000
1.5700	20.000000	120.000000
1.5800	20.000000	120.000000
1.5900	20.000000	120.000000
1.6000	20.000000	120.000000
1.6100	20.000000	120.000000
1.6200	20.000000	120.000000
1.6300	20.000000	120.000000
1.6400	20.000000	120.000000
1.6500	20.000000	120.000000
1.6600	20.000000	120.000000
1.6700	20.000000	120.000000
1.6800	20.000000	120.000000
1.6900	20.000000	120.000000
1.7000	20.000000	120.000000
1.7100	20.000000	119.999707
1.7200	20.000000	119.997677
1.7300	20.000000	119.992238
1.7400	20.000000	119.981787
1.7500	20.000000	119.964790
1.7600	20.000000	119.939779
1.7700	20.000000	119.905352
1.7800	20.000000	119.860174
1.7900	20.000000	119.802973
1.8000	20.000000	119.732543
1.8100	20.000000	119.647738
1.8200	20.000000	119.547474
1.8300	20.000000	119.430729
1.8400	20.000000	119.296539
1.8500	20.000000	119.144000
1.8600	20.000000	118.972266
1.8700	20.000000	118.780547
1.8800	20.000000	118.568110
1.8900	20.000000	118.334276
1.9000	20.000000	118.078420
1.9100	20.000000	117.799971
1.9200	20.000000	117.498409
1.9300	20.000000	117.173266
1.9400	20.000000	116.824125
1.9500	20.000000	116.450617
1.9600	20.000000	116.052422
1.9700	20.000000	115.629266
1.9800	20.000000	115.180924
1.9900	20.000000	114.707214
2.0000	20.000000	114.208000
2.0100	20.000000	113.683190
2.0200	20.000000	113.132733
2.0300	20.000000	112.556622
2.0400	20.000000	111.954889
2.0500	20.000000	111.327605
2.0600	20.000000	110.674883
2.0700	20.000000	109.996870
2.0800	20.000000	109.293755
2.0900	20.000000	108.565757
2.1000	20.000000	107.813136
2.1100	20.000000	107.036181
2.1200	20.000000	106.235218
2.1300	20.000000	105.410603
2.1400	20.000000	104.562724
2.1500	20.000000	103.692000
2.1600	20.000000	102.798878
2.1700	20.000000	101.883835
2.1800	20.000000	100.947374
2.1900	20.000000	99.990026
2.2000	20.000000	99.012346
2.2100	20.000000	98.014915
2.2200	20.000000	96.998337
2.2300	20.000000	95.963239
2.2400	20.000000	94.910269
2.2500	20.000000	93.840099
2.2600	20.000000	92.753416
2.2700	20.000000	91.650930
2.2800	20.000000	90.533367
2.2900	20.000000	89.401470
2.3000	20.000000	88.256000
2.3100	20.000000	87.097731
2.3200	20.000000	85.927452
2.3300	20.000000	84.745966
2.3400	20.000000	83.554087
2.3500	20.000000	82.352642
2.3600	20.000000	81.142467
2.3700	20.000000	79.924407
2.3800	20.000000	78.699318
2.3900	20.000000	77.468061
2.4000	20.000000	76.231506
2.4100	20.000000	74.990527
2.4200	20.000000	73.746002
2.4300	20.000000	72.498815
2.4400	20.000000	71.249852
2.4500	20.000000	70.000000
2.4600	20.000000	68.750148
2.4700	20.000000	67.501185
2.4800	20.000000	66.253998
2.4900	20.000000	65.009473
2.5000	20.000000	63.768494
2.5100	20.000000	62.531939
2.5200	20.000000	61.300682
2.5300	20.000000	60.075593
